<svg xmlns="http://www.w3.org/2000/svg" version="1.1" xmlns:xlink="http://www.w3.org/1999/xlink" xmlns:svgjs="http://svgjs.dev/svgjs" width="1000" height="1000" viewBox="0 0 1000 1000"><rect width="1000" height="1000" fill="#000000"></rect><g transform="matrix(0.7,0,0,0.7,149.57575757575756,400.06291085436084)"><svg viewBox="0 0 396 113" data-background-color="#ffffff" preserveAspectRatio="xMidYMid meet" height="285" width="1000" xmlns="http://www.w3.org/2000/svg" xmlns:xlink="http://www.w3.org/1999/xlink"><g id="tight-bounds" transform="matrix(1,0,0,1,0.2400000000000091,0.10597029301868588)"><svg viewBox="0 0 395.52 112.78805941396263" height="112.78805941396263" width="395.52"><g><svg viewBox="0 0 395.52 112.78805941396263" height="112.78805941396263" width="395.52"><g><svg viewBox="0 0 395.52 112.78805941396263" height="112.78805941396263" width="395.52"><g id="textblocktransform"><svg viewBox="0 0 395.52 112.78805941396263" height="112.78805941396263" width="395.52" id="textblock"><g><rect width="395.52" height="87.74230717797442" fill="none" stroke-width="9.018103199999999" stroke="#ffffff" data-fill-palette-color="none" data-stroke-palette-color="tertiary"></rect><rect width="395.52" height="25.045752235988196" y="87.74230717797442" fill="#ffffff" data-fill-palette-color="tertiary"></rect></g><g><svg viewBox="0 0 395.52 87.74230717797442" height="87.74230717797442" width="395.52"><g transform="matrix(1,0,0,1,23.607599999999998,23.607599999999998)"><svg width="348.3048" viewBox="5.800000190734863 -35.25 305.08001708984375 35.5" height="40.52710717797443" data-palette-color="#363636"><path d="M51.75-35L54.3-35 54.3-13.6Q54.3-6.75 50.95-3.25 47.6 0.25 41.55 0.25L41.55 0.25Q37.2 0.25 34.25-1.6 31.3-3.45 30.05-7.05L30.05-7.05Q28.8-3.45 25.85-1.6 22.9 0.25 18.55 0.25L18.55 0.25Q12.5 0.25 9.15-3.25 5.8-6.75 5.8-13.6L5.8-13.6 5.8-35 8.35-35 8.35-13.7Q8.35-7.75 10.98-4.93 13.6-2.1 18.55-2.1L18.55-2.1Q23.45-2.1 26.1-4.95 28.75-7.8 28.75-13.7L28.75-13.7 28.75-35 31.35-35 31.35-13.7Q31.35-7.75 33.98-4.93 36.6-2.1 41.55-2.1L41.55-2.1Q46.45-2.1 49.1-4.95 51.75-7.8 51.75-13.7L51.75-13.7 51.75-35ZM89.2-6.15L90.3-4.25Q88.2-2.1 84.65-0.93 81.1 0.25 76.8 0.25L76.8 0.25Q72.35 0.25 69.27-0.98 66.2-2.2 64.62-4.38 63.05-6.55 63.05-9.35L63.05-9.35Q63.05-12.65 65.05-14.85 67.05-17.05 70.45-17.85L70.45-17.85Q67.65-18.7 66.1-20.8 64.55-22.9 64.55-25.85L64.55-25.85Q64.55-28.5 66.02-30.63 67.5-32.75 70.42-34 73.35-35.25 77.55-35.25L77.55-35.25Q80.7-35.25 83.65-34.5 86.6-33.75 88.7-32.35L88.7-32.35 87.85-30.3Q83.25-33 77.65-33L77.65-33Q72.55-33 69.85-30.98 67.15-28.95 67.15-25.7L67.15-25.7Q67.15-22.45 69.42-20.68 71.7-18.9 75.75-18.9L75.75-18.9 84.25-18.9 84.25-16.6 75.65-16.6Q71.05-16.6 68.35-14.8 65.65-13 65.65-9.5L65.65-9.5Q65.65-6.05 68.5-4.03 71.35-2 76.9-2L76.9-2Q80.75-2 83.97-3.1 87.2-4.2 89.2-6.15L89.2-6.15ZM118.3-18.05Q122.05-17.35 124.02-15.1 126-12.85 126-9.25L126-9.25Q126-4.8 122.75-2.4 119.5 0 113.1 0L113.1 0 97.5 0 97.5-35 112.1-35Q117.8-35 120.97-32.68 124.15-30.35 124.15-26.05L124.15-26.05Q124.15-23.05 122.57-21 121-18.95 118.3-18.05L118.3-18.05ZM112-32.8L100.05-32.8 100.05-18.85 112-18.85Q116.6-18.85 119.07-20.63 121.55-22.4 121.55-25.85L121.55-25.85Q121.55-29.25 119.07-31.03 116.6-32.8 112-32.8L112-32.8ZM113.1-2.2Q118.2-2.2 120.82-3.98 123.45-5.75 123.45-9.45L123.45-9.45Q123.45-13.15 120.82-14.9 118.2-16.65 113.1-16.65L113.1-16.65 100.05-16.65 100.05-2.2 113.1-2.2ZM160.09-35L162.64-35 162.64 0 160.14 0 160.14-6.7Q158.49-3.25 155.44-1.5 152.39 0.25 148.14 0.25L148.14 0.25Q141.89 0.25 138.34-3.45 134.79-7.15 134.79-14.05L134.79-14.05 134.79-35 137.34-35 137.34-14.15Q137.34-8.25 140.27-5.18 143.19-2.1 148.54-2.1L148.54-2.1Q154.04-2.1 157.07-5.35 160.09-8.6 160.09-15.05L160.09-15.05 160.09-35ZM188.24-32.7L180.89-32.7 180.89-2.3 188.24-2.3 188.24 0 170.99 0 170.99-2.3 178.34-2.3 178.34-32.7 170.99-32.7 170.99-35 188.24-35 188.24-32.7ZM196.59 0L196.59-35 199.14-35 199.14-2.3 219.29-2.3 219.29 0 196.59 0ZM225.84 0L225.84-35 239.69-35Q245.14-35 249.36-32.75 253.59-30.5 255.94-26.53 258.29-22.55 258.29-17.5L258.29-17.5Q258.29-12.45 255.94-8.47 253.59-4.5 249.36-2.25 245.14 0 239.69 0L239.69 0 225.84 0ZM228.39-2.3L239.49-2.3Q244.34-2.3 248.04-4.23 251.74-6.15 253.74-9.6 255.74-13.05 255.74-17.5L255.74-17.5Q255.74-21.95 253.74-25.4 251.74-28.85 248.04-30.78 244.34-32.7 239.49-32.7L239.49-32.7 228.39-32.7 228.39-2.3ZM280.28-32.7L272.93-32.7 272.93-2.3 280.28-2.3 280.28 0 263.03 0 263.03-2.3 270.38-2.3 270.38-32.7 263.03-32.7 263.03-35 280.28-35 280.28-32.7ZM310.88-31.5L309.88-29.45Q304.63-32.55 298.03-32.9L298.03-32.9 298.03 0 295.43 0 295.43-32.9Q289.08-32.65 283.58-29.45L283.58-29.45 282.58-31.5Q288.98-35.25 296.68-35.25L296.68-35.25Q304.48-35.25 310.88-31.5L310.88-31.5Z" opacity="1" transform="matrix(1,0,0,1,0,0)" fill="#ffffff" class="wordmark-text-0" data-fill-palette-color="primary" id="text-0"></path></svg></g></svg></g></svg></g></svg></g></svg></g><defs></defs></svg><rect width="395.52" height="112.78805941396263" fill="none" stroke="none" visibility="hidden"></rect></g></svg></g></svg>