<svg xmlns="http://www.w3.org/2000/svg" version="1.1" xmlns:xlink="http://www.w3.org/1999/xlink" xmlns:svgjs="http://svgjs.dev/svgjs" width="1000" height="1000" viewBox="0 0 1000 1000"><rect width="1000" height="1000" fill="#00000000"></rect><g transform="matrix(0.7,0,0,0.7,149.57605563665675,416.61150407155196)"><svg viewBox="0 0 396 95" data-background-color="#000000" preserveAspectRatio="xMidYMid meet" height="239" width="1000" xmlns="http://www.w3.org/2000/svg" xmlns:xlink="http://www.w3.org/1999/xlink"><g id="tight-bounds" transform="matrix(1,0,0,1,0.24008861730862918,-0.1481813048328604)"><svg viewBox="0 0 395.52 95.29667394077593" height="95.29667394077593" width="395.52"><g><svg viewBox="0 0 395.52 95.29667394077593" height="95.29667394077593" width="395.52"><g><svg viewBox="0 0 395.52 95.29667394077593" height="95.29667394077593" width="395.52"><g id="textblocktransform"><svg viewBox="0 0 395.52 95.29667394077593" height="95.29667394077593" width="395.52" id="textblock"><g><svg viewBox="0 0 395.52 77.07797766921985" height="77.07797766921985" width="395.52"><path d="M394.594 16.532C392.735 8.531 387.435 6.307 387.435 6.307 371.165-1.934 350.86-0.158 332.619 1.026 300.414 1.074 268.339 2.835 236.208 3.779 168.767 3.923 100.749 1.555 33.643 7.395 27.339 9.187-6.54 7.747 1.121 17.556 3.129 21.636 10.456 26.165 10.232 29.909 11.236 30.565 12.631 29.061 13.226 30.005 15.309 32.549 18.711 31.349 21.501 32.853 17.614 36.869 20.403 40.214 23.062 43.718 18.377 44.63 12.371 44.198 9.675 47.222 9.396 49.414 7.89 48.998 6.235 48.902 5.026 48.838 2.59 49.078 2.999 49.767 4.394 52.119-1.594 53.479 2.162 55.783-0.422 58.279 3.948 60.439 3.353 63.144 3.278 63.688 3.687 64.152 4.338 64.28 7.22 64.968 3.018 66.312 3.464 67.768 33.029 77.721 65.104 70.84 95.394 75.417 103.259 72.216 97.346 76.553 100.489 75.881 102.943 75.097 104.728 78.345 107.499 76.505 107.927 75.977 107.276 74.729 108.8 74.969 109.6 75.097 110.307 75.065 110.418 74.329 110.586 73.224 109.117 73.913 108.726 73.336 112.947 70.424 111.906 77.353 115.866 77.065 115.68 76.217 114.528 75.001 116.889 75.161 119.232 73.945 119.306 72.936 121.389 75.673 121.463 76.265 121.835 76.681 122.43 76.969 128.938 73.993 135.409 78.025 142.233 76.681 146.417 75.209 150.433 77.481 154.672 76.921 156.16 76.473 157.666 75.673 159.098 77.017 176.632 77.305 195.319 76.105 211.943 77.065 256.364 75.273 303.835 77.801 350.674 75.433 361.719 74.521 373.192 73.224 383.958 72.184 383.958 72.184 392.679 69.336 392.679 56.535S394.538 45.334 394.817 35.141C395.096 24.948 396.398 24.532 394.538 16.532Z" opacity="1" fill="#ffaaaa" data-fill-palette-color="tertiary"></path><g transform="matrix(1,0,0,1,55.76832,26.068561146666667)"><svg width="283.98335999999995" viewBox="2.799999952316284 -36.150001525878906 422.9800109863281 37.150001525878906" height="24.940855375886517" data-palette-color="#ffffff"><path d="M23.65-6.45L23.65-6.45 23.65-2.25Q23.65-0.1 20.73 0.05 17.8 0.2 14.38 0.2 10.95 0.2 6.55-0.05L6.55-0.05Q5.1-0.15 4.23-1.05 3.35-1.95 3.2-3.1L3.2-3.1Q2.8-7.5 2.8-16.93 2.8-26.35 3.1-30.65 3.4-34.95 7.45-35L7.45-35Q12.1-35.1 17.4-35.1 22.7-35.1 28.88-34.95 35.05-34.8 38.95-30.3 42.85-25.8 42.85-20.4 42.85-15 39.4-11.5 35.95-8 29.3-8L29.3-8 25.4-8Q24.75-8 24.2-7.55 23.65-7.1 23.65-6.45ZM23.6-24.55L23.6-24.55 23.7-15.3Q23.7-14.35 24.75-14.35L24.75-14.35Q27.85-14.35 29.63-16.07 31.4-17.8 31.4-20.15 31.4-22.5 29.73-24.2 28.05-25.9 24.8-25.9L24.8-25.9Q23.6-25.9 23.6-24.55ZM68.3-24.55L68.3-24.55 68.4-15.3Q68.4-14.35 69.45-14.35L69.45-14.35Q72.55-14.35 74.32-16.07 76.1-17.8 76.1-20.15 76.1-22.5 74.42-24.2 72.75-25.9 69.5-25.9L69.5-25.9Q68.3-25.9 68.3-24.55ZM81.4-9.6L81.4-9.6Q82.35-8.6 88.15-2.05L88.15-2.05Q88.5-1.6 88.5-1.25L88.5-1.25Q88.5 0.05 87.35 0.05L87.35 0.05Q84.7 0.1 82.02 0.1 79.35 0.1 76.7 0.05L76.7 0.05Q75.25 0.05 74.05-1.1L74.05-1.1 69.75-7.6Q69.5-7.9 69.15-8L69.15-8Q68.35-8.3 68.35-7.35L68.35-7.35 68.35-2.25Q68.35-0.1 65.52 0.05 62.7 0.2 59.35 0.2 56 0.2 51.25-0.05L51.25-0.05Q49.8-0.15 48.92-1.05 48.05-1.95 47.9-3.1L47.9-3.1Q47.5-7.5 47.5-16.93 47.5-26.35 47.8-30.65 48.1-34.95 52.15-35L52.15-35Q55.95-35.05 62.5-35.05 69.05-35.05 73.35-34.95L73.35-34.95Q79.55-34.85 83.5-30.35 87.45-25.85 87.45-20.2L87.45-20.2Q87.45-16.9 85.92-14.1 84.4-11.3 81.4-9.6ZM97.35-35L97.35-35 110.75-35Q112.85-35 113.52-33.95 114.2-32.9 114.42-29.63 114.65-26.35 114.65-16.93 114.65-7.5 114.25-3.1L114.25-3.1Q114.1-1.95 113.22-1.05 112.35-0.15 110.9-0.05L110.9-0.05Q108.05 0.15 104.3 0.15 100.55 0.15 97.2-0.05L97.2-0.05Q95.75-0.15 94.87-1.05 94-1.95 93.85-3.1L93.85-3.1Q93.45-7.5 93.45-16.93 93.45-26.35 93.67-29.63 93.9-32.9 94.57-33.95 95.25-35 97.35-35ZM138.29 1L138.29 1Q129.29 1 124.07-3.58 118.84-8.15 118.84-16.5L118.84-16.5Q118.84-21.6 120.52-25.45 122.19-29.3 125.24-31.6L125.24-31.6Q131.29-36.15 141.19-36.15L141.19-36.15Q147.59-36.15 153.99-34.4L153.99-34.4Q156.44-33.6 156.44-30.45L156.44-30.45Q156.44-26.15 153.74-26.15L153.74-26.15Q153.29-26.15 150.79-26.55 148.29-26.95 147.29-26.95L147.29-26.95Q143.74-26.95 141.82-24.48 139.89-22 139.89-18.57 139.89-15.15 141.69-12.55 143.49-9.95 146.59-9.85L146.59-9.85Q148.69-9.75 154.04-9.75L154.04-9.75Q156.64-9.75 156.89-7.3L156.89-7.3Q157.04-6.4 157.04-5.48 157.04-4.55 156.89-3.6L156.89-3.6Q156.59-1.8 154.09-0.98 151.59-0.15 146.89 0.43 142.19 1 138.29 1ZM165.44 0Q164.04 0 163.06-0.93 162.09-1.85 161.81-3.98 161.54-6.1 161.54-16.73 161.54-27.35 161.89-30.6L161.89-30.6Q162.29-34.8 165.44-34.9L165.44-34.9Q169.04-35 195.29-35L195.29-35Q198.24-35 198.24-31.25L198.24-31.25Q198.24-28.3 195.64-28.3L195.64-28.3 184.64-28.3Q183.59-28.3 182.97-27.6 182.34-26.9 182.34-25.8L182.34-25.8 182.34-22.2Q182.34-20.7 183.69-20.7L183.69-20.7 192.79-20.7Q193.59-20.7 194.02-20.55 194.44-20.4 194.79-19.68 195.14-18.95 195.14-17.3 195.14-15.65 194.56-15.1 193.99-14.55 192.69-14.55L192.69-14.55 184.54-14.55Q183.29-14.55 182.81-13.93 182.34-13.3 182.34-12L182.34-12 182.34-9.55Q182.34-7.4 184.39-7.4L184.39-7.4 196.84-7.4Q197.74-7.4 198.44-6.88 199.14-6.35 199.14-4.58 199.14-2.8 198.29-1.4 197.44 0 196.29 0L196.29 0 165.44 0ZM223.78-3.5L223.78-3.5 223.74-30.65Q224.13-34.8 227.28-35L227.28-35Q229.53-35.05 257.24-35.05L257.24-35.05Q260.24-35.05 260.24-30.6L260.24-30.6Q260.24-28.35 257.58-28.35L257.58-28.35 246.69-28.35Q245.63-28.35 245.01-27.65 244.38-26.95 244.38-25.8L244.38-25.8 244.38-22.25Q244.38-20.7 245.69-20.7L245.69-20.7 253.99-20.7Q255.19-20.7 255.78-20.15 256.38-19.6 256.38-17.63 256.38-15.65 255.81-15.1 255.24-14.55 253.94-14.55L253.94-14.55 246.49-14.55Q245.24-14.55 244.76-13.95 244.28-13.35 244.28-12.05L244.28-12.05 244.28-3.45Q244.28-1.7 243.53-0.85 242.78 0 241.59 0L241.59 0 227.38 0Q225.99 0 224.99-0.93 223.99-1.85 223.78-3.5ZM268.48-35L268.48-35 281.88-35Q283.98-35 284.66-33.95 285.33-32.9 285.56-29.63 285.78-26.35 285.78-16.93 285.78-7.5 285.38-3.1L285.38-3.1Q285.23-1.95 284.36-1.05 283.48-0.15 282.03-0.05L282.03-0.05Q279.18 0.15 275.43 0.15 271.68 0.15 268.33-0.05L268.33-0.05Q266.88-0.15 266.01-1.05 265.13-1.95 264.98-3.1L264.98-3.1Q264.58-7.5 264.58-16.93 264.58-26.35 264.81-29.63 265.03-32.9 265.71-33.95 266.38-35 268.48-35ZM325.68-35L325.68-35 331.03-35Q332.73-35 333.41-34.45 334.08-33.9 334.13-32.2L334.13-32.2Q334.43-24.6 334.43-15.85 334.43-7.1 334.08-3.05L334.08-3.05Q333.98-1.9 333.21-0.95 332.43 0 331.18 0L331.18 0 322.83 0Q321.08 0 318.98-1.25L318.98-1.25Q307.38-8.1 304.38-9.6L304.38-9.6Q303.78-9.85 303.41-9.43 303.03-9 303.03-7.85L303.03-7.85 303.03-2.3Q303.03-1.35 302.33-0.8L302.33-0.8Q301.28 0.05 296.93 0.05L296.93 0.05Q295.73 0.05 294.58-0.03 293.43-0.1 292.71-1.05 291.98-2 291.93-3.1L291.93-3.1Q291.78-9.1 291.78-18.18 291.78-27.25 291.83-30 291.88-32.75 292.48-33.88 293.08-35 294.78-35L294.78-35 300.28-35Q301.98-35 303.78-34.05L303.78-34.05Q319.28-26 321.88-24.7L321.88-24.7Q322.73-24.3 323.23-24.6 323.73-24.9 323.73-25.7L323.73-25.7 323.73-32.7Q323.73-33.7 324.26-34.35 324.78-35 325.68-35ZM363.03-0.1L363.03-0.1Q359.68 0.2 353.43 0.2 347.18 0.2 344.9 0.03 342.63-0.15 341.48-0.8 340.33-1.45 340.23-2.85L340.23-2.85Q339.93-8.25 339.93-15.18 339.93-22.1 340.13-29.85L340.13-29.85Q340.23-34.65 344.58-34.95L344.58-34.95Q347.63-35.15 353.93-35.15 360.23-35.15 363.8-34.98 367.38-34.8 370.7-33.33 374.03-31.85 376.03-29.5L376.03-29.5Q380.18-24.65 380.18-18.25L380.18-18.25Q380.18-11.5 375.83-6.2L375.83-6.2Q373.73-3.65 370.4-2 367.08-0.35 363.03-0.1ZM360.78-24.2L360.78-24.2 360.78-12.1Q360.78-11.7 361.08-11.35 361.38-11 361.88-11L361.88-11Q365.08-11 366.8-13.2 368.53-15.4 368.53-18.4 368.53-21.4 366.95-23.63 365.38-25.85 362.73-25.85L362.73-25.85Q362.08-25.85 361.73-25.8L361.73-25.8Q360.78-25.55 360.78-24.2ZM405.58-24.55L405.58-24.55 405.68-15.3Q405.68-14.35 406.73-14.35L406.73-14.35Q409.83-14.35 411.6-16.07 413.38-17.8 413.38-20.15 413.38-22.5 411.7-24.2 410.03-25.9 406.78-25.9L406.78-25.9Q405.58-25.9 405.58-24.55ZM418.68-9.6L418.68-9.6Q419.63-8.6 425.43-2.05L425.43-2.05Q425.78-1.6 425.78-1.25L425.78-1.25Q425.78 0.05 424.63 0.05L424.63 0.05Q421.98 0.1 419.3 0.1 416.63 0.1 413.98 0.05L413.98 0.05Q412.53 0.05 411.33-1.1L411.33-1.1 407.03-7.6Q406.78-7.9 406.43-8L406.43-8Q405.63-8.3 405.63-7.35L405.63-7.35 405.63-2.25Q405.63-0.1 402.8 0.05 399.98 0.2 396.63 0.2 393.28 0.2 388.53-0.05L388.53-0.05Q387.08-0.15 386.2-1.05 385.33-1.95 385.18-3.1L385.18-3.1Q384.78-7.5 384.78-16.93 384.78-26.35 385.08-30.65 385.38-34.95 389.43-35L389.43-35Q393.23-35.05 399.78-35.05 406.33-35.05 410.63-34.95L410.63-34.95Q416.83-34.85 420.78-30.35 424.73-25.85 424.73-20.2L424.73-20.2Q424.73-16.9 423.2-14.1 421.68-11.3 418.68-9.6Z" opacity="1" transform="matrix(1,0,0,1,0,0)" fill="#bb5353" class="wordmark-text-0" data-fill-palette-color="quaternary" id="text-0"></path></svg></g></svg></g><g transform="matrix(1,0,0,1,147.18367416001408,82.96591504293764)"><svg viewBox="0 0 101.15265167997184 12.330758897838294" height="12.330758897838294" width="101.15265167997184"><g transform="matrix(1,0,0,1,0,0)"><svg width="101.15265167997184" viewBox="3.3499999046325684 -35.900001525878906 375.2599792480469 45.75" height="12.330758897838294" data-palette-color="#000000"><path d="M23.35-25.35L23.35 0 19.4 0 19.4-4.4Q17.4 0.3 11.45 0.3L11.45 0.3Q7.7 0.3 5.53-1.93 3.35-4.15 3.35-7.9L3.35-7.9 3.35-25.35 7.3-25.35 7.3-8.9Q7.3-6.15 8.7-4.7 10.1-3.25 12.5-3.25L12.5-3.25Q15.65-3.25 17.53-5.45 19.4-7.65 19.4-11.4L19.4-11.4 19.4-25.35 23.35-25.35ZM50.65-17.45L50.65 0 46.7 0 46.7-16.4Q46.7-19.2 45.27-20.68 43.85-22.15 41.55-22.15L41.55-22.15Q38.7-22.15 36.62-19.95 34.55-17.75 34.55-13.85L34.55-13.85 34.55 0 30.65 0 30.65-25.35 34.55-25.35 34.55-20.95Q36.8-25.7 42.55-25.7L42.55-25.7Q46.25-25.7 48.45-23.45 50.65-21.2 50.65-17.45L50.65-17.45ZM61.75-3.75L61.75 0 57.8 0 57.8-35.35 61.75-35.35 61.75-21.55Q64.5-25.75 69.45-25.75L69.45-25.75Q74.25-25.75 77.3-22.08 80.34-18.4 80.34-12.45L80.34-12.45Q80.34-7.1 77.47-3.35 74.59 0.4 69.55 0.4L69.55 0.4Q64.45 0.4 61.75-3.75L61.75-3.75ZM61.75-12.85L61.75-12.85Q61.75-7.8 63.92-5.5 66.09-3.2 69.2-3.2L69.2-3.2Q72.25-3.2 74.25-5.75 76.25-8.3 76.25-12.4L76.25-12.4Q76.25-17.1 74.17-19.63 72.09-22.15 68.95-22.15L68.95-22.15Q66.25-22.15 64-19.9 61.75-17.65 61.75-12.85ZM104.64-5L104.64-1.3Q101.69 0.25 97.44 0.25L97.44 0.25Q91.69 0.25 88.17-3.28 84.64-6.8 84.64-12.6L84.64-12.6Q84.64-18.65 87.79-22.15 90.94-25.65 95.89-25.65L95.89-25.65Q100.64-25.65 103.44-22.6 106.24-19.55 106.24-13.95L106.24-13.95Q106.24-12.35 105.99-11L105.99-11 88.69-11Q89.14-7.25 91.54-5.25 93.94-3.25 97.84-3.25L97.84-3.25Q102.09-3.25 104.64-5L104.64-5ZM95.89-22.2L95.89-22.2Q93.04-22.2 91.04-20.15 89.04-18.1 88.69-14.3L88.69-14.3 102.29-14.3 102.29-15.3Q102.29-18.45 100.59-20.33 98.89-22.2 95.89-22.2ZM119.99-3.05L119.99-3.05Q122.69-3.05 124.29-4.58 125.89-6.1 125.89-8.45L125.89-8.45 125.89-11.7 121.49-11.7Q118.29-11.7 116.69-10.45 115.09-9.2 115.09-7.3 115.09-5.4 116.34-4.23 117.59-3.05 119.99-3.05ZM125.94 0L125.94-3Q123.99 0.25 118.84 0.25L118.84 0.25Q115.29 0.25 113.12-1.85 110.94-3.95 110.94-7.15L110.94-7.15Q110.94-10.8 113.72-12.83 116.49-14.85 121.29-14.85L121.29-14.85 125.89-14.85 125.89-16.15Q125.89-19.15 124.54-20.68 123.19-22.2 119.99-22.2L119.99-22.2Q115.94-22.2 112.79-20.05L112.79-20.05 112.79-24Q115.64-25.75 120.29-25.75L120.29-25.75Q129.84-25.75 129.84-16.05L129.84-16.05 129.84 0 125.94 0ZM149.54-4.4L149.54-0.65Q147.89 0.25 145.84 0.25L145.84 0.25Q138.34 0.25 138.34-7.4L138.34-7.4 138.34-22.15 134.29-22.15 134.29-25.35 138.34-25.35 138.34-31.65 142.29-31.65 142.29-25.35 149.29-25.35 149.29-22.15 142.29-22.15 142.29-7.3Q142.29-3.25 146.09-3.25L146.09-3.25Q148.04-3.25 149.54-4.4L149.54-4.4ZM163.03-3.05L163.03-3.05Q165.73-3.05 167.33-4.58 168.94-6.1 168.94-8.45L168.94-8.45 168.94-11.7 164.53-11.7Q161.33-11.7 159.73-10.45 158.13-9.2 158.13-7.3 158.13-5.4 159.38-4.23 160.63-3.05 163.03-3.05ZM168.98 0L168.98-3Q167.03 0.25 161.88 0.25L161.88 0.25Q158.33 0.25 156.16-1.85 153.98-3.95 153.98-7.15L153.98-7.15Q153.98-10.8 156.76-12.83 159.53-14.85 164.33-14.85L164.33-14.85 168.94-14.85 168.94-16.15Q168.94-19.15 167.58-20.68 166.23-22.2 163.03-22.2L163.03-22.2Q158.98-22.2 155.83-20.05L155.83-20.05 155.83-24Q158.69-25.75 163.33-25.75L163.33-25.75Q172.88-25.75 172.88-16.05L172.88-16.05 172.88 0 168.98 0ZM183.98-3.75L183.98 0 180.03 0 180.03-35.35 183.98-35.35 183.98-21.55Q186.73-25.75 191.68-25.75L191.68-25.75Q196.48-25.75 199.53-22.08 202.58-18.4 202.58-12.45L202.58-12.45Q202.58-7.1 199.71-3.35 196.83 0.4 191.78 0.4L191.78 0.4Q186.68 0.4 183.98-3.75L183.98-3.75ZM183.98-12.85L183.98-12.85Q183.98-7.8 186.16-5.5 188.33-3.2 191.43-3.2L191.43-3.2Q194.48-3.2 196.48-5.75 198.48-8.3 198.48-12.4L198.48-12.4Q198.48-17.1 196.41-19.63 194.33-22.15 191.18-22.15L191.18-22.15Q188.48-22.15 186.23-19.9 183.98-17.65 183.98-12.85ZM212.53-35.35L212.53 0 208.58 0 208.58-35.35 212.53-35.35ZM238.53-5L238.53-1.3Q235.58 0.25 231.33 0.25L231.33 0.25Q225.58 0.25 222.05-3.28 218.53-6.8 218.53-12.6L218.53-12.6Q218.53-18.65 221.68-22.15 224.83-25.65 229.78-25.65L229.78-25.65Q234.53-25.65 237.33-22.6 240.13-19.55 240.13-13.95L240.13-13.95Q240.13-12.35 239.88-11L239.88-11 222.58-11Q223.03-7.25 225.43-5.25 227.83-3.25 231.73-3.25L231.73-3.25Q235.98-3.25 238.53-5L238.53-5ZM229.78-22.2L229.78-22.2Q226.93-22.2 224.93-20.15 222.93-18.1 222.58-14.3L222.58-14.3 236.18-14.3 236.18-15.3Q236.18-18.45 234.48-20.33 232.78-22.2 229.78-22.2ZM261.32-3.85L261.32 9.85 257.42 9.85 257.42-25.35 261.32-25.35 261.32-21.5Q263.97-25.75 269.17-25.75L269.17-25.75Q274.22-25.75 277.1-22.08 279.97-18.4 279.97-12.9L279.97-12.9Q279.97-7.05 276.95-3.33 273.92 0.4 269.07 0.4L269.07 0.4Q264.07 0.4 261.32-3.85L261.32-3.85ZM261.32-12.65L261.32-12.65Q261.32-7.8 263.57-5.5 265.82-3.2 268.57-3.2L268.57-3.2Q271.77-3.2 273.82-5.73 275.87-8.25 275.87-12.9L275.87-12.9Q275.87-17.05 273.87-19.6 271.87-22.15 268.82-22.15 265.77-22.15 263.55-19.93 261.32-17.7 261.32-12.65ZM289.67-13.85L289.67 0 285.72 0 285.77-25.35 289.67-25.35 289.67-20.9Q291.67-25.6 296.57-25.6L296.57-25.6Q297.47-25.6 297.97-25.5L297.97-25.5 297.97-21.6Q296.92-21.95 295.82-21.95L295.82-21.95Q293.17-21.95 291.42-19.5 289.67-17.05 289.67-13.85L289.67-13.85ZM306.22-25.35L306.22 0 302.27 0 302.27-25.35 306.22-25.35ZM306.07-35.15Q306.82-34.4 306.82-33.3 306.82-32.2 306.07-31.48 305.32-30.75 304.22-30.75 303.12-30.75 302.39-31.48 301.67-32.2 301.67-33.3 301.67-34.4 302.39-35.15 303.12-35.9 304.22-35.9 305.32-35.9 306.07-35.15ZM331.17-4.65L331.17-0.9Q328.76 0.55 325.26 0.55L325.26 0.55Q319.26 0.55 315.74-3.28 312.21-7.1 312.21-12.6L312.21-12.6Q312.21-18 315.74-21.9 319.26-25.8 325.37-25.8L325.37-25.8Q328.62-25.8 331.17-24.4L331.17-24.4 331.17-20.65Q328.87-22.2 325.76-22.2L325.76-22.2Q321.46-22.2 318.89-19.43 316.31-16.65 316.31-12.55L316.31-12.55Q316.37-8.45 318.81-5.73 321.26-3 325.76-3L325.76-3Q328.67-3 331.17-4.65L331.17-4.65ZM355.76-5L355.76-1.3Q352.81 0.25 348.56 0.25L348.56 0.25Q342.81 0.25 339.29-3.28 335.76-6.8 335.76-12.6L335.76-12.6Q335.76-18.65 338.91-22.15 342.06-25.65 347.01-25.65L347.01-25.65Q351.76-25.65 354.56-22.6 357.36-19.55 357.36-13.95L357.36-13.95Q357.36-12.35 357.11-11L357.11-11 339.81-11Q340.26-7.25 342.66-5.25 345.06-3.25 348.96-3.25L348.96-3.25Q353.21-3.25 355.76-5L355.76-5ZM347.01-22.2L347.01-22.2Q344.16-22.2 342.16-20.15 340.16-18.1 339.81-14.3L339.81-14.3 353.41-14.3 353.41-15.3Q353.41-18.45 351.71-20.33 350.01-22.2 347.01-22.2ZM378.61-6.75L378.61-6.75Q378.61-3.5 376.34-1.6 374.06 0.3 370.11 0.3L370.11 0.3Q365.51 0.3 362.66-1.25L362.66-1.25 362.66-5.1Q366.01-3.1 369.86-3.1L369.86-3.1Q372.16-3.1 373.36-4 374.56-4.9 374.56-6.45L374.56-6.45Q374.56-8.25 373.24-9.25 371.91-10.25 368.81-11.5L368.81-11.5Q365.96-12.6 364.24-14.25 362.51-15.9 362.51-18.7L362.51-18.7Q362.51-21.85 364.89-23.73 367.26-25.6 370.81-25.6L370.81-25.6Q374.76-25.6 377.16-24.5L377.16-24.5 377.16-20.75Q374.86-22.15 370.86-22.15L370.86-22.15Q368.86-22.15 367.69-21.23 366.51-20.3 366.51-18.85L366.51-18.85Q366.51-17.95 366.86-17.28 367.21-16.6 368.24-15.95 369.26-15.3 369.74-15.08 370.21-14.85 371.81-14.15L371.81-14.15Q375.01-12.85 376.81-11.2 378.61-9.55 378.61-6.75Z" opacity="1" transform="matrix(1,0,0,1,0,0)" fill="#bb5353" class="slogan-text-1" data-fill-palette-color="secondary" id="text-1"></path></svg></g></svg></g></svg></g></svg></g><g></g></svg></g><defs></defs></svg><rect width="395.52" height="95.29667394077593" fill="none" stroke="none" visibility="hidden"></rect></g></svg></g></svg>